<?xml version="1.0" encoding="UTF-8" standalone="no"?>
<!DOCTYPE svg PUBLIC "-//W3C//DTD SVG 1.1//EN"
 "http://www.w3.org/Graphics/SVG/1.1/DTD/svg11.dtd">
<!-- Generated by graphviz version 2.40.1 (20161225.0304)
 -->
<!-- Title: dependencies Pages: 1 -->
<svg width="504pt" height="211pt"
 viewBox="0.00 0.00 504.00 211.00" xmlns="http://www.w3.org/2000/svg" xmlns:xlink="http://www.w3.org/1999/xlink">
<g id="graph0" class="graph" transform="scale(1 1) rotate(0) translate(4 207)">
<title>dependencies</title>
<polygon fill="#ffffff" stroke="transparent" points="-4,4 -4,-207 500,-207 500,4 -4,4"/>
<text text-anchor="start" x="227.0091" y="-42.4" font-family="sans-serif" font-weight="bold" font-size="14.00" fill="#000000">Legend</text>
<polygon fill="#ffffb3" stroke="transparent" points="14,-10 14,-30 34,-30 34,-10 14,-10"/>
<text text-anchor="start" x="37.629" y="-15.4" font-family="sans-serif" font-size="14.00" fill="#000000"> &#160;Declarations</text>
<polygon fill="#8dd3c7" stroke="transparent" points="127,-10 127,-30 147,-30 147,-10 127,-10"/>
<text text-anchor="start" x="150.7251" y="-15.4" font-family="sans-serif" font-size="14.00" fill="#000000"> &#160;Module</text>
<polygon fill="#80b1d3" stroke="transparent" points="213,-10 213,-30 233,-30 233,-10 213,-10"/>
<text text-anchor="start" x="236.7812" y="-15.4" font-family="sans-serif" font-size="14.00" fill="#000000"> &#160;Bootstrap</text>
<polygon fill="#fdb462" stroke="transparent" points="310,-10 310,-30 330,-30 330,-10 310,-10"/>
<text text-anchor="start" x="333.6732" y="-15.4" font-family="sans-serif" font-size="14.00" fill="#000000"> &#160;Providers</text>
<polygon fill="#fb8072" stroke="transparent" points="406,-10 406,-30 426,-30 426,-10 406,-10"/>
<text text-anchor="start" x="429.7258" y="-15.4" font-family="sans-serif" font-size="14.00" fill="#000000"> &#160;Exports</text>
<g id="clust1" class="cluster">
<title>cluster_AdminCustomerModule</title>
<polygon fill="none" stroke="#000000" stroke-dasharray="1,5" points="54,-70 54,-195 442,-195 442,-70 54,-70"/>
</g>
<g id="clust2" class="cluster">
<title>cluster_AdminCustomerModule_declarations</title>
<polygon fill="none" stroke="#000000" points="244,-78 244,-130 434,-130 434,-78 244,-78"/>
</g>
<g id="clust4" class="cluster">
<title>cluster_AdminCustomerModule_imports</title>
<polygon fill="none" stroke="#000000" points="62,-78 62,-130 236,-130 236,-78 62,-78"/>
</g>
<!-- AdminCustomerComponent -->
<g id="node1" class="node">
<title>AdminCustomerComponent</title>
<polygon fill="#ffffb3" stroke="#000000" points="426.1581,-122 251.8419,-122 251.8419,-86 426.1581,-86 426.1581,-122"/>
<text text-anchor="middle" x="339" y="-99.8" font-family="Times,serif" font-size="14.00" fill="#000000">AdminCustomerComponent</text>
</g>
<!-- AdminCustomerModule -->
<g id="node2" class="node">
<title>AdminCustomerModule</title>
<polygon fill="#8dd3c7" stroke="#000000" points="320.3753,-187 317.3753,-191 296.3753,-191 293.3753,-187 167.6247,-187 167.6247,-151 320.3753,-151 320.3753,-187"/>
<text text-anchor="middle" x="244" y="-164.8" font-family="Times,serif" font-size="14.00" fill="#000000">AdminCustomerModule</text>
</g>
<!-- AdminCustomerComponent&#45;&gt;AdminCustomerModule -->
<g id="edge1" class="edge">
<title>AdminCustomerComponent&#45;&gt;AdminCustomerModule</title>
<path fill="none" stroke="#000000" d="M286.0544,-122.1061C286.0544,-122.1061 286.0544,-140.991 286.0544,-140.991"/>
<polygon fill="#000000" stroke="#000000" points="282.5544,-140.9909 286.0544,-150.991 289.5544,-140.991 282.5544,-140.9909"/>
</g>
<!-- ResponseHandlerModule -->
<g id="node3" class="node">
<title>ResponseHandlerModule</title>
<polygon fill="#8dd3c7" stroke="#000000" points="228.2921,-122 225.2921,-126 204.2921,-126 201.2921,-122 69.7079,-122 69.7079,-86 228.2921,-86 228.2921,-122"/>
<text text-anchor="middle" x="149" y="-99.8" font-family="Times,serif" font-size="14.00" fill="#000000">ResponseHandlerModule</text>
</g>
<!-- ResponseHandlerModule&#45;&gt;AdminCustomerModule -->
<g id="edge2" class="edge">
<title>ResponseHandlerModule&#45;&gt;AdminCustomerModule</title>
<path fill="none" stroke="#000000" d="M197.8542,-122.1061C197.8542,-122.1061 197.8542,-140.991 197.8542,-140.991"/>
<polygon fill="#000000" stroke="#000000" points="194.3542,-140.9909 197.8542,-150.991 201.3542,-140.991 194.3542,-140.9909"/>
</g>
</g>
</svg>
