<?xml version="1.0" encoding="UTF-8" standalone="no"?>
<!DOCTYPE svg PUBLIC "-//W3C//DTD SVG 1.1//EN"
 "http://www.w3.org/Graphics/SVG/1.1/DTD/svg11.dtd">
<!-- Generated by graphviz version 2.40.1 (20161225.0304)
 -->
<!-- Title: dependencies Pages: 1 -->
<svg width="504pt" height="211pt"
 viewBox="0.00 0.00 504.00 211.00" xmlns="http://www.w3.org/2000/svg" xmlns:xlink="http://www.w3.org/1999/xlink">
<g id="graph0" class="graph" transform="scale(1 1) rotate(0) translate(4 207)">
<title>dependencies</title>
<polygon fill="#ffffff" stroke="transparent" points="-4,4 -4,-207 500,-207 500,4 -4,4"/>
<text text-anchor="start" x="227.0091" y="-42.4" font-family="sans-serif" font-weight="bold" font-size="14.00" fill="#000000">Legend</text>
<polygon fill="#ffffb3" stroke="transparent" points="14,-10 14,-30 34,-30 34,-10 14,-10"/>
<text text-anchor="start" x="37.629" y="-15.4" font-family="sans-serif" font-size="14.00" fill="#000000"> &#160;Declarations</text>
<polygon fill="#8dd3c7" stroke="transparent" points="127,-10 127,-30 147,-30 147,-10 127,-10"/>
<text text-anchor="start" x="150.7251" y="-15.4" font-family="sans-serif" font-size="14.00" fill="#000000"> &#160;Module</text>
<polygon fill="#80b1d3" stroke="transparent" points="213,-10 213,-30 233,-30 233,-10 213,-10"/>
<text text-anchor="start" x="236.7812" y="-15.4" font-family="sans-serif" font-size="14.00" fill="#000000"> &#160;Bootstrap</text>
<polygon fill="#fdb462" stroke="transparent" points="310,-10 310,-30 330,-30 330,-10 310,-10"/>
<text text-anchor="start" x="333.6732" y="-15.4" font-family="sans-serif" font-size="14.00" fill="#000000"> &#160;Providers</text>
<polygon fill="#fb8072" stroke="transparent" points="406,-10 406,-30 426,-30 426,-10 406,-10"/>
<text text-anchor="start" x="429.7258" y="-15.4" font-family="sans-serif" font-size="14.00" fill="#000000"> &#160;Exports</text>
<g id="clust1" class="cluster">
<title>cluster_EditDishModule</title>
<polygon fill="none" stroke="#000000" stroke-dasharray="1,5" points="75,-70 75,-195 421,-195 421,-70 75,-70"/>
</g>
<g id="clust2" class="cluster">
<title>cluster_EditDishModule_declarations</title>
<polygon fill="none" stroke="#000000" points="265,-78 265,-130 413,-130 413,-78 265,-78"/>
</g>
<g id="clust4" class="cluster">
<title>cluster_EditDishModule_imports</title>
<polygon fill="none" stroke="#000000" points="83,-78 83,-130 257,-130 257,-78 83,-78"/>
</g>
<!-- EditDishComponent -->
<g id="node1" class="node">
<title>EditDishComponent</title>
<polygon fill="#ffffb3" stroke="#000000" points="404.608,-122 273.392,-122 273.392,-86 404.608,-86 404.608,-122"/>
<text text-anchor="middle" x="339" y="-99.8" font-family="Times,serif" font-size="14.00" fill="#000000">EditDishComponent</text>
</g>
<!-- EditDishModule -->
<g id="node2" class="node">
<title>EditDishModule</title>
<polygon fill="#8dd3c7" stroke="#000000" points="308.8259,-187 305.8259,-191 284.8259,-191 281.8259,-187 199.1741,-187 199.1741,-151 308.8259,-151 308.8259,-187"/>
<text text-anchor="middle" x="254" y="-164.8" font-family="Times,serif" font-size="14.00" fill="#000000">EditDishModule</text>
</g>
<!-- EditDishComponent&#45;&gt;EditDishModule -->
<g id="edge1" class="edge">
<title>EditDishComponent&#45;&gt;EditDishModule</title>
<path fill="none" stroke="#000000" d="M291.0544,-122.1061C291.0544,-122.1061 291.0544,-140.991 291.0544,-140.991"/>
<polygon fill="#000000" stroke="#000000" points="287.5544,-140.9909 291.0544,-150.991 294.5544,-140.991 287.5544,-140.9909"/>
</g>
<!-- ResponseHandlerModule -->
<g id="node3" class="node">
<title>ResponseHandlerModule</title>
<polygon fill="#8dd3c7" stroke="#000000" points="249.2921,-122 246.2921,-126 225.2921,-126 222.2921,-122 90.7079,-122 90.7079,-86 249.2921,-86 249.2921,-122"/>
<text text-anchor="middle" x="170" y="-99.8" font-family="Times,serif" font-size="14.00" fill="#000000">ResponseHandlerModule</text>
</g>
<!-- ResponseHandlerModule&#45;&gt;EditDishModule -->
<g id="edge2" class="edge">
<title>ResponseHandlerModule&#45;&gt;EditDishModule</title>
<path fill="none" stroke="#000000" d="M224.2416,-122.1061C224.2416,-122.1061 224.2416,-140.991 224.2416,-140.991"/>
<polygon fill="#000000" stroke="#000000" points="220.7417,-140.9909 224.2416,-150.991 227.7417,-140.991 220.7417,-140.9909"/>
</g>
</g>
</svg>
