<?xml version="1.0" encoding="UTF-8" standalone="no"?>
<!DOCTYPE svg PUBLIC "-//W3C//DTD SVG 1.1//EN"
 "http://www.w3.org/Graphics/SVG/1.1/DTD/svg11.dtd">
<!-- Generated by graphviz version 2.40.1 (20161225.0304)
 -->
<!-- Title: dependencies Pages: 1 -->
<svg width="504pt" height="211pt"
 viewBox="0.00 0.00 504.00 211.00" xmlns="http://www.w3.org/2000/svg" xmlns:xlink="http://www.w3.org/1999/xlink">
<g id="graph0" class="graph" transform="scale(1 1) rotate(0) translate(4 207)">
<title>dependencies</title>
<polygon fill="#ffffff" stroke="transparent" points="-4,4 -4,-207 500,-207 500,4 -4,4"/>
<text text-anchor="start" x="227.0091" y="-42.4" font-family="sans-serif" font-weight="bold" font-size="14.00" fill="#000000">Legend</text>
<polygon fill="#ffffb3" stroke="transparent" points="14,-10 14,-30 34,-30 34,-10 14,-10"/>
<text text-anchor="start" x="37.629" y="-15.4" font-family="sans-serif" font-size="14.00" fill="#000000"> &#160;Declarations</text>
<polygon fill="#8dd3c7" stroke="transparent" points="127,-10 127,-30 147,-30 147,-10 127,-10"/>
<text text-anchor="start" x="150.7251" y="-15.4" font-family="sans-serif" font-size="14.00" fill="#000000"> &#160;Module</text>
<polygon fill="#80b1d3" stroke="transparent" points="213,-10 213,-30 233,-30 233,-10 213,-10"/>
<text text-anchor="start" x="236.7812" y="-15.4" font-family="sans-serif" font-size="14.00" fill="#000000"> &#160;Bootstrap</text>
<polygon fill="#fdb462" stroke="transparent" points="310,-10 310,-30 330,-30 330,-10 310,-10"/>
<text text-anchor="start" x="333.6732" y="-15.4" font-family="sans-serif" font-size="14.00" fill="#000000"> &#160;Providers</text>
<polygon fill="#fb8072" stroke="transparent" points="406,-10 406,-30 426,-30 426,-10 406,-10"/>
<text text-anchor="start" x="429.7258" y="-15.4" font-family="sans-serif" font-size="14.00" fill="#000000"> &#160;Exports</text>
<g id="clust1" class="cluster">
<title>cluster_AdminPartnerDishesModule</title>
<polygon fill="none" stroke="#000000" stroke-dasharray="1,5" points="42,-70 42,-195 454,-195 454,-70 42,-70"/>
</g>
<g id="clust2" class="cluster">
<title>cluster_AdminPartnerDishesModule_declarations</title>
<polygon fill="none" stroke="#000000" points="232,-78 232,-130 446,-130 446,-78 232,-78"/>
</g>
<g id="clust4" class="cluster">
<title>cluster_AdminPartnerDishesModule_imports</title>
<polygon fill="none" stroke="#000000" points="50,-78 50,-130 224,-130 224,-78 50,-78"/>
</g>
<!-- AdminPartnerDishesComponent -->
<g id="node1" class="node">
<title>AdminPartnerDishesComponent</title>
<polygon fill="#ffffb3" stroke="#000000" points="438.245,-122 239.755,-122 239.755,-86 438.245,-86 438.245,-122"/>
<text text-anchor="middle" x="339" y="-99.8" font-family="Times,serif" font-size="14.00" fill="#000000">AdminPartnerDishesComponent</text>
</g>
<!-- AdminPartnerDishesModule -->
<g id="node2" class="node">
<title>AdminPartnerDishesModule</title>
<polygon fill="#8dd3c7" stroke="#000000" points="326.4622,-187 323.4622,-191 302.4622,-191 299.4622,-187 149.5378,-187 149.5378,-151 326.4622,-151 326.4622,-187"/>
<text text-anchor="middle" x="238" y="-164.8" font-family="Times,serif" font-size="14.00" fill="#000000">AdminPartnerDishesModule</text>
</g>
<!-- AdminPartnerDishesComponent&#45;&gt;AdminPartnerDishesModule -->
<g id="edge1" class="edge">
<title>AdminPartnerDishesComponent&#45;&gt;AdminPartnerDishesModule</title>
<path fill="none" stroke="#000000" d="M283.0544,-122.1061C283.0544,-122.1061 283.0544,-140.991 283.0544,-140.991"/>
<polygon fill="#000000" stroke="#000000" points="279.5544,-140.9909 283.0544,-150.991 286.5544,-140.991 279.5544,-140.9909"/>
</g>
<!-- ResponseHandlerModule -->
<g id="node3" class="node">
<title>ResponseHandlerModule</title>
<polygon fill="#8dd3c7" stroke="#000000" points="216.2921,-122 213.2921,-126 192.2921,-126 189.2921,-122 57.7079,-122 57.7079,-86 216.2921,-86 216.2921,-122"/>
<text text-anchor="middle" x="137" y="-99.8" font-family="Times,serif" font-size="14.00" fill="#000000">ResponseHandlerModule</text>
</g>
<!-- ResponseHandlerModule&#45;&gt;AdminPartnerDishesModule -->
<g id="edge2" class="edge">
<title>ResponseHandlerModule&#45;&gt;AdminPartnerDishesModule</title>
<path fill="none" stroke="#000000" d="M182.8324,-122.1061C182.8324,-122.1061 182.8324,-140.991 182.8324,-140.991"/>
<polygon fill="#000000" stroke="#000000" points="179.3325,-140.9909 182.8324,-150.991 186.3325,-140.991 179.3325,-140.9909"/>
</g>
</g>
</svg>
