<?xml version="1.0" encoding="UTF-8" standalone="no"?>
<!DOCTYPE svg PUBLIC "-//W3C//DTD SVG 1.1//EN"
 "http://www.w3.org/Graphics/SVG/1.1/DTD/svg11.dtd">
<!-- Generated by graphviz version 2.40.1 (20161225.0304)
 -->
<!-- Title: dependencies Pages: 1 -->
<svg width="504pt" height="211pt"
 viewBox="0.00 0.00 504.00 211.00" xmlns="http://www.w3.org/2000/svg" xmlns:xlink="http://www.w3.org/1999/xlink">
<g id="graph0" class="graph" transform="scale(1 1) rotate(0) translate(4 207)">
<title>dependencies</title>
<polygon fill="#ffffff" stroke="transparent" points="-4,4 -4,-207 500,-207 500,4 -4,4"/>
<text text-anchor="start" x="227.0091" y="-42.4" font-family="sans-serif" font-weight="bold" font-size="14.00" fill="#000000">Legend</text>
<polygon fill="#ffffb3" stroke="transparent" points="14,-10 14,-30 34,-30 34,-10 14,-10"/>
<text text-anchor="start" x="37.629" y="-15.4" font-family="sans-serif" font-size="14.00" fill="#000000"> &#160;Declarations</text>
<polygon fill="#8dd3c7" stroke="transparent" points="127,-10 127,-30 147,-30 147,-10 127,-10"/>
<text text-anchor="start" x="150.7251" y="-15.4" font-family="sans-serif" font-size="14.00" fill="#000000"> &#160;Module</text>
<polygon fill="#80b1d3" stroke="transparent" points="213,-10 213,-30 233,-30 233,-10 213,-10"/>
<text text-anchor="start" x="236.7812" y="-15.4" font-family="sans-serif" font-size="14.00" fill="#000000"> &#160;Bootstrap</text>
<polygon fill="#fdb462" stroke="transparent" points="310,-10 310,-30 330,-30 330,-10 310,-10"/>
<text text-anchor="start" x="333.6732" y="-15.4" font-family="sans-serif" font-size="14.00" fill="#000000"> &#160;Providers</text>
<polygon fill="#fb8072" stroke="transparent" points="406,-10 406,-30 426,-30 426,-10 406,-10"/>
<text text-anchor="start" x="429.7258" y="-15.4" font-family="sans-serif" font-size="14.00" fill="#000000"> &#160;Exports</text>
<g id="clust1" class="cluster">
<title>cluster_SignupModule</title>
<polygon fill="none" stroke="#000000" stroke-dasharray="1,5" points="80,-70 80,-195 416,-195 416,-70 80,-70"/>
</g>
<g id="clust2" class="cluster">
<title>cluster_SignupModule_declarations</title>
<polygon fill="none" stroke="#000000" points="270,-78 270,-130 408,-130 408,-78 270,-78"/>
</g>
<g id="clust4" class="cluster">
<title>cluster_SignupModule_imports</title>
<polygon fill="none" stroke="#000000" points="88,-78 88,-130 262,-130 262,-78 88,-78"/>
</g>
<!-- SignupComponent -->
<g id="node1" class="node">
<title>SignupComponent</title>
<polygon fill="#ffffb3" stroke="#000000" points="399.5056,-122 278.4944,-122 278.4944,-86 399.5056,-86 399.5056,-122"/>
<text text-anchor="middle" x="339" y="-99.8" font-family="Times,serif" font-size="14.00" fill="#000000">SignupComponent</text>
</g>
<!-- SignupModule -->
<g id="node2" class="node">
<title>SignupModule</title>
<polygon fill="#8dd3c7" stroke="#000000" points="306.7233,-187 303.7233,-191 282.7233,-191 279.7233,-187 207.2767,-187 207.2767,-151 306.7233,-151 306.7233,-187"/>
<text text-anchor="middle" x="257" y="-164.8" font-family="Times,serif" font-size="14.00" fill="#000000">SignupModule</text>
</g>
<!-- SignupComponent&#45;&gt;SignupModule -->
<g id="edge1" class="edge">
<title>SignupComponent&#45;&gt;SignupModule</title>
<path fill="none" stroke="#000000" d="M292.5544,-122.1061C292.5544,-122.1061 292.5544,-140.991 292.5544,-140.991"/>
<polygon fill="#000000" stroke="#000000" points="289.0544,-140.9909 292.5544,-150.991 296.0544,-140.991 289.0544,-140.9909"/>
</g>
<!-- ResponseHandlerModule -->
<g id="node3" class="node">
<title>ResponseHandlerModule</title>
<polygon fill="#8dd3c7" stroke="#000000" points="254.2921,-122 251.2921,-126 230.2921,-126 227.2921,-122 95.7079,-122 95.7079,-86 254.2921,-86 254.2921,-122"/>
<text text-anchor="middle" x="175" y="-99.8" font-family="Times,serif" font-size="14.00" fill="#000000">ResponseHandlerModule</text>
</g>
<!-- ResponseHandlerModule&#45;&gt;SignupModule -->
<g id="edge2" class="edge">
<title>ResponseHandlerModule&#45;&gt;SignupModule</title>
<path fill="none" stroke="#000000" d="M230.7672,-122.1061C230.7672,-122.1061 230.7672,-140.991 230.7672,-140.991"/>
<polygon fill="#000000" stroke="#000000" points="227.2673,-140.9909 230.7672,-150.991 234.2673,-140.991 227.2673,-140.9909"/>
</g>
</g>
</svg>
