<?xml version="1.0" encoding="UTF-8" standalone="no"?>
<!DOCTYPE svg PUBLIC "-//W3C//DTD SVG 1.1//EN"
 "http://www.w3.org/Graphics/SVG/1.1/DTD/svg11.dtd">
<!-- Generated by graphviz version 2.40.1 (20161225.0304)
 -->
<!-- Title: dependencies Pages: 1 -->
<svg width="504pt" height="211pt"
 viewBox="0.00 0.00 504.00 211.00" xmlns="http://www.w3.org/2000/svg" xmlns:xlink="http://www.w3.org/1999/xlink">
<g id="graph0" class="graph" transform="scale(1 1) rotate(0) translate(4 207)">
<title>dependencies</title>
<polygon fill="#ffffff" stroke="transparent" points="-4,4 -4,-207 500,-207 500,4 -4,4"/>
<text text-anchor="start" x="227.0091" y="-42.4" font-family="sans-serif" font-weight="bold" font-size="14.00" fill="#000000">Legend</text>
<polygon fill="#ffffb3" stroke="transparent" points="14,-10 14,-30 34,-30 34,-10 14,-10"/>
<text text-anchor="start" x="37.629" y="-15.4" font-family="sans-serif" font-size="14.00" fill="#000000"> &#160;Declarations</text>
<polygon fill="#8dd3c7" stroke="transparent" points="127,-10 127,-30 147,-30 147,-10 127,-10"/>
<text text-anchor="start" x="150.7251" y="-15.4" font-family="sans-serif" font-size="14.00" fill="#000000"> &#160;Module</text>
<polygon fill="#80b1d3" stroke="transparent" points="213,-10 213,-30 233,-30 233,-10 213,-10"/>
<text text-anchor="start" x="236.7812" y="-15.4" font-family="sans-serif" font-size="14.00" fill="#000000"> &#160;Bootstrap</text>
<polygon fill="#fdb462" stroke="transparent" points="310,-10 310,-30 330,-30 330,-10 310,-10"/>
<text text-anchor="start" x="333.6732" y="-15.4" font-family="sans-serif" font-size="14.00" fill="#000000"> &#160;Providers</text>
<polygon fill="#fb8072" stroke="transparent" points="406,-10 406,-30 426,-30 426,-10 406,-10"/>
<text text-anchor="start" x="429.7258" y="-15.4" font-family="sans-serif" font-size="14.00" fill="#000000"> &#160;Exports</text>
<g id="clust1" class="cluster">
<title>cluster_PartnerDishesModule</title>
<polygon fill="none" stroke="#000000" stroke-dasharray="1,5" points="61,-70 61,-195 435,-195 435,-70 61,-70"/>
</g>
<g id="clust2" class="cluster">
<title>cluster_PartnerDishesModule_declarations</title>
<polygon fill="none" stroke="#000000" points="251,-78 251,-130 427,-130 427,-78 251,-78"/>
</g>
<g id="clust4" class="cluster">
<title>cluster_PartnerDishesModule_imports</title>
<polygon fill="none" stroke="#000000" points="69,-78 69,-130 243,-130 243,-78 69,-78"/>
</g>
<!-- PartnerDishesComponent -->
<g id="node1" class="node">
<title>PartnerDishesComponent</title>
<polygon fill="#ffffb3" stroke="#000000" points="418.8571,-122 259.1429,-122 259.1429,-86 418.8571,-86 418.8571,-122"/>
<text text-anchor="middle" x="339" y="-99.8" font-family="Times,serif" font-size="14.00" fill="#000000">PartnerDishesComponent</text>
</g>
<!-- PartnerDishesModule -->
<g id="node2" class="node">
<title>PartnerDishesModule</title>
<polygon fill="#8dd3c7" stroke="#000000" points="316.0744,-187 313.0744,-191 292.0744,-191 289.0744,-187 177.9256,-187 177.9256,-151 316.0744,-151 316.0744,-187"/>
<text text-anchor="middle" x="247" y="-164.8" font-family="Times,serif" font-size="14.00" fill="#000000">PartnerDishesModule</text>
</g>
<!-- PartnerDishesComponent&#45;&gt;PartnerDishesModule -->
<g id="edge1" class="edge">
<title>PartnerDishesComponent&#45;&gt;PartnerDishesModule</title>
<path fill="none" stroke="#000000" d="M287.5544,-122.1061C287.5544,-122.1061 287.5544,-140.991 287.5544,-140.991"/>
<polygon fill="#000000" stroke="#000000" points="284.0544,-140.9909 287.5544,-150.991 291.0544,-140.991 284.0544,-140.9909"/>
</g>
<!-- ResponseHandlerModule -->
<g id="node3" class="node">
<title>ResponseHandlerModule</title>
<polygon fill="#8dd3c7" stroke="#000000" points="235.2921,-122 232.2921,-126 211.2921,-126 208.2921,-122 76.7079,-122 76.7079,-86 235.2921,-86 235.2921,-122"/>
<text text-anchor="middle" x="156" y="-99.8" font-family="Times,serif" font-size="14.00" fill="#000000">ResponseHandlerModule</text>
</g>
<!-- ResponseHandlerModule&#45;&gt;PartnerDishesModule -->
<g id="edge2" class="edge">
<title>ResponseHandlerModule&#45;&gt;PartnerDishesModule</title>
<path fill="none" stroke="#000000" d="M206.5544,-122.1061C206.5544,-122.1061 206.5544,-140.991 206.5544,-140.991"/>
<polygon fill="#000000" stroke="#000000" points="203.0544,-140.9909 206.5544,-150.991 210.0544,-140.991 203.0544,-140.9909"/>
</g>
</g>
</svg>
