<?xml version="1.0" encoding="UTF-8" standalone="no"?>
<!DOCTYPE svg PUBLIC "-//W3C//DTD SVG 1.1//EN"
 "http://www.w3.org/Graphics/SVG/1.1/DTD/svg11.dtd">
<!-- Generated by graphviz version 2.40.1 (20161225.0304)
 -->
<!-- Title: dependencies Pages: 1 -->
<svg width="1642pt" height="284pt"
 viewBox="0.00 0.00 1642.00 284.00" xmlns="http://www.w3.org/2000/svg" xmlns:xlink="http://www.w3.org/1999/xlink">
<g id="graph0" class="graph" transform="scale(1 1) rotate(0) translate(4 280)">
<title>dependencies</title>
<polygon fill="#ffffff" stroke="transparent" points="-4,4 -4,-280 1638,-280 1638,4 -4,4"/>
<text text-anchor="start" x="796.0091" y="-42.4" font-family="sans-serif" font-weight="bold" font-size="14.00" fill="#000000">Legend</text>
<polygon fill="#ffffb3" stroke="transparent" points="583,-10 583,-30 603,-30 603,-10 583,-10"/>
<text text-anchor="start" x="606.629" y="-15.4" font-family="sans-serif" font-size="14.00" fill="#000000"> &#160;Declarations</text>
<polygon fill="#8dd3c7" stroke="transparent" points="696,-10 696,-30 716,-30 716,-10 696,-10"/>
<text text-anchor="start" x="719.7251" y="-15.4" font-family="sans-serif" font-size="14.00" fill="#000000"> &#160;Module</text>
<polygon fill="#80b1d3" stroke="transparent" points="782,-10 782,-30 802,-30 802,-10 782,-10"/>
<text text-anchor="start" x="805.7812" y="-15.4" font-family="sans-serif" font-size="14.00" fill="#000000"> &#160;Bootstrap</text>
<polygon fill="#fdb462" stroke="transparent" points="879,-10 879,-30 899,-30 899,-10 879,-10"/>
<text text-anchor="start" x="902.6732" y="-15.4" font-family="sans-serif" font-size="14.00" fill="#000000"> &#160;Providers</text>
<polygon fill="#fb8072" stroke="transparent" points="975,-10 975,-30 995,-30 995,-10 975,-10"/>
<text text-anchor="start" x="998.7258" y="-15.4" font-family="sans-serif" font-size="14.00" fill="#000000"> &#160;Exports</text>
<g id="clust1" class="cluster">
<title>cluster_AppModule</title>
<polygon fill="none" stroke="#000000" stroke-dasharray="1,5" points="8,-70 8,-268 1626,-268 1626,-70 8,-70"/>
</g>
<g id="clust2" class="cluster">
<title>cluster_AppModule_declarations</title>
<polygon fill="none" stroke="#000000" points="515,-78 515,-130 1618,-130 1618,-78 515,-78"/>
</g>
<g id="clust10" class="cluster">
<title>cluster_AppModule_imports</title>
<polygon fill="none" stroke="#000000" points="186,-78 186,-130 507,-130 507,-78 186,-78"/>
</g>
<g id="clust12" class="cluster">
<title>cluster_AppModule_bootstrap</title>
<polygon fill="none" stroke="#000000" points="762,-208 762,-260 886,-260 886,-208 762,-208"/>
</g>
<g id="clust13" class="cluster">
<title>cluster_AppModule_providers</title>
<polygon fill="none" stroke="#000000" points="16,-78 16,-130 178,-130 178,-78 16,-78"/>
</g>
<!-- AppComponent -->
<g id="node1" class="node">
<title>AppComponent</title>
<polygon fill="#ffffb3" stroke="#000000" points="1609.9399,-122 1504.0601,-122 1504.0601,-86 1609.9399,-86 1609.9399,-122"/>
<text text-anchor="middle" x="1557" y="-99.8" font-family="Times,serif" font-size="14.00" fill="#000000">AppComponent</text>
</g>
<!-- AppModule -->
<g id="node8" class="node">
<title>AppModule</title>
<polygon fill="#8dd3c7" stroke="#000000" points="865.6571,-187 862.6571,-191 841.6571,-191 838.6571,-187 782.3429,-187 782.3429,-151 865.6571,-151 865.6571,-187"/>
<text text-anchor="middle" x="824" y="-164.8" font-family="Times,serif" font-size="14.00" fill="#000000">AppModule</text>
</g>
<!-- AppComponent&#45;&gt;AppModule -->
<g id="edge1" class="edge">
<title>AppComponent&#45;&gt;AppModule</title>
<path fill="none" stroke="#000000" d="M1557,-122.0109C1557,-144.4852 1557,-180 1557,-180 1557,-180 875.7753,-180 875.7753,-180"/>
<polygon fill="#000000" stroke="#000000" points="875.7754,-176.5001 865.7753,-180 875.7753,-183.5001 875.7754,-176.5001"/>
</g>
<!-- ChatFormComponent -->
<g id="node2" class="node">
<title>ChatFormComponent</title>
<polygon fill="#ffffb3" stroke="#000000" points="1486.108,-122 1347.892,-122 1347.892,-86 1486.108,-86 1486.108,-122"/>
<text text-anchor="middle" x="1417" y="-99.8" font-family="Times,serif" font-size="14.00" fill="#000000">ChatFormComponent</text>
</g>
<!-- ChatFormComponent&#45;&gt;AppModule -->
<g id="edge2" class="edge">
<title>ChatFormComponent&#45;&gt;AppModule</title>
<path fill="none" stroke="#000000" d="M1417,-122.1289C1417,-142.5724 1417,-173 1417,-173 1417,-173 875.6986,-173 875.6986,-173"/>
<polygon fill="#000000" stroke="#000000" points="875.6986,-169.5001 865.6986,-173 875.6986,-176.5001 875.6986,-169.5001"/>
</g>
<!-- MessageFormComponent -->
<g id="node3" class="node">
<title>MessageFormComponent</title>
<polygon fill="#ffffb3" stroke="#000000" points="1330.1442,-122 1169.8558,-122 1169.8558,-86 1330.1442,-86 1330.1442,-122"/>
<text text-anchor="middle" x="1250" y="-99.8" font-family="Times,serif" font-size="14.00" fill="#000000">MessageFormComponent</text>
</g>
<!-- MessageFormComponent&#45;&gt;AppModule -->
<g id="edge3" class="edge">
<title>MessageFormComponent&#45;&gt;AppModule</title>
<path fill="none" stroke="#000000" d="M1250,-122.2667C1250,-140.5552 1250,-166 1250,-166 1250,-166 876.0124,-166 876.0124,-166"/>
<polygon fill="#000000" stroke="#000000" points="876.0124,-162.5001 866.0124,-166 876.0123,-169.5001 876.0124,-162.5001"/>
</g>
<!-- MessageItemComponent -->
<g id="node4" class="node">
<title>MessageItemComponent</title>
<polygon fill="#ffffb3" stroke="#000000" points="1151.9664,-122 996.0336,-122 996.0336,-86 1151.9664,-86 1151.9664,-122"/>
<text text-anchor="middle" x="1074" y="-99.8" font-family="Times,serif" font-size="14.00" fill="#000000">MessageItemComponent</text>
</g>
<!-- MessageItemComponent&#45;&gt;AppModule -->
<g id="edge4" class="edge">
<title>MessageItemComponent&#45;&gt;AppModule</title>
<path fill="none" stroke="#000000" d="M1074,-122.0091C1074,-138.0494 1074,-159 1074,-159 1074,-159 875.8444,-159 875.8444,-159"/>
<polygon fill="#000000" stroke="#000000" points="875.8444,-155.5001 865.8444,-159 875.8443,-162.5001 875.8444,-155.5001"/>
</g>
<!-- MessageListComponent -->
<g id="node5" class="node">
<title>MessageListComponent</title>
<polygon fill="#ffffb3" stroke="#000000" points="978.0884,-122 825.9116,-122 825.9116,-86 978.0884,-86 978.0884,-122"/>
<text text-anchor="middle" x="902" y="-99.8" font-family="Times,serif" font-size="14.00" fill="#000000">MessageListComponent</text>
</g>
<!-- MessageListComponent&#45;&gt;AppModule -->
<g id="edge5" class="edge">
<title>MessageListComponent&#45;&gt;AppModule</title>
<path fill="none" stroke="#000000" d="M845.892,-122.1061C845.892,-122.1061 845.892,-140.991 845.892,-140.991"/>
<polygon fill="#000000" stroke="#000000" points="842.3921,-140.9909 845.892,-150.991 849.3921,-140.991 842.3921,-140.9909"/>
</g>
<!-- SignupComponent -->
<g id="node6" class="node">
<title>SignupComponent</title>
<polygon fill="#ffffb3" stroke="#000000" points="807.5056,-122 686.4944,-122 686.4944,-86 807.5056,-86 807.5056,-122"/>
<text text-anchor="middle" x="747" y="-99.8" font-family="Times,serif" font-size="14.00" fill="#000000">SignupComponent</text>
</g>
<!-- SignupComponent&#45;&gt;AppModule -->
<g id="edge6" class="edge">
<title>SignupComponent&#45;&gt;AppModule</title>
<path fill="none" stroke="#000000" d="M794.8373,-122.1061C794.8373,-122.1061 794.8373,-140.991 794.8373,-140.991"/>
<polygon fill="#000000" stroke="#000000" points="791.3374,-140.9909 794.8373,-150.991 798.3374,-140.991 791.3374,-140.9909"/>
</g>
<!-- UserProfileComponent -->
<g id="node7" class="node">
<title>UserProfileComponent</title>
<polygon fill="#ffffb3" stroke="#000000" points="668.8585,-122 523.1415,-122 523.1415,-86 668.8585,-86 668.8585,-122"/>
<text text-anchor="middle" x="596" y="-99.8" font-family="Times,serif" font-size="14.00" fill="#000000">UserProfileComponent</text>
</g>
<!-- UserProfileComponent&#45;&gt;AppModule -->
<g id="edge7" class="edge">
<title>UserProfileComponent&#45;&gt;AppModule</title>
<path fill="none" stroke="#000000" d="M596,-122.0091C596,-138.0494 596,-159 596,-159 596,-159 772.1813,-159 772.1813,-159"/>
<polygon fill="#000000" stroke="#000000" points="772.1813,-162.5001 782.1813,-159 772.1813,-155.5001 772.1813,-162.5001"/>
</g>
<!-- AppComponent  -->
<g id="node11" class="node">
<title>AppComponent </title>
<polygon fill="#80b1d3" stroke="#000000" points="878.439,-252 769.561,-252 769.561,-216 878.439,-216 878.439,-252"/>
<text text-anchor="middle" x="824" y="-229.8" font-family="Times,serif" font-size="14.00" fill="#000000">AppComponent </text>
</g>
<!-- AppModule&#45;&gt;AppComponent  -->
<g id="edge10" class="edge">
<title>AppModule&#45;&gt;AppComponent </title>
<path fill="none" stroke="#000000" stroke-dasharray="1,5" d="M824,-187.1061C824,-187.1061 824,-205.991 824,-205.991"/>
<polygon fill="#000000" stroke="#000000" points="820.5001,-205.9909 824,-215.991 827.5001,-205.991 820.5001,-205.9909"/>
</g>
<!-- AppRoutingModule -->
<g id="node9" class="node">
<title>AppRoutingModule</title>
<polygon fill="#8dd3c7" stroke="#000000" points="499.2744,-122 496.2744,-126 475.2744,-126 472.2744,-122 370.7256,-122 370.7256,-86 499.2744,-86 499.2744,-122"/>
<text text-anchor="middle" x="435" y="-99.8" font-family="Times,serif" font-size="14.00" fill="#000000">AppRoutingModule</text>
</g>
<!-- AppRoutingModule&#45;&gt;AppModule -->
<g id="edge8" class="edge">
<title>AppRoutingModule&#45;&gt;AppModule</title>
<path fill="none" stroke="#000000" d="M435,-122.2667C435,-140.5552 435,-166 435,-166 435,-166 772.0006,-166 772.0006,-166"/>
<polygon fill="#000000" stroke="#000000" points="772.0006,-169.5001 782.0006,-166 772.0006,-162.5001 772.0006,-169.5001"/>
</g>
<!-- ResponseHandlerModule -->
<g id="node10" class="node">
<title>ResponseHandlerModule</title>
<polygon fill="#8dd3c7" stroke="#000000" points="352.2921,-122 349.2921,-126 328.2921,-126 325.2921,-122 193.7079,-122 193.7079,-86 352.2921,-86 352.2921,-122"/>
<text text-anchor="middle" x="273" y="-99.8" font-family="Times,serif" font-size="14.00" fill="#000000">ResponseHandlerModule</text>
</g>
<!-- ResponseHandlerModule&#45;&gt;AppModule -->
<g id="edge9" class="edge">
<title>ResponseHandlerModule&#45;&gt;AppModule</title>
<path fill="none" stroke="#000000" d="M273,-122.1289C273,-142.5724 273,-173 273,-173 273,-173 772.1332,-173 772.1332,-173"/>
<polygon fill="#000000" stroke="#000000" points="772.1332,-176.5001 782.1332,-173 772.1332,-169.5001 772.1332,-176.5001"/>
</g>
<!-- AuthInterceptor -->
<g id="node12" class="node">
<title>AuthInterceptor</title>
<ellipse fill="#fdb462" stroke="#000000" cx="97" cy="-104" rx="72.9121" ry="18"/>
<text text-anchor="middle" x="97" y="-99.8" font-family="Times,serif" font-size="14.00" fill="#000000">AuthInterceptor</text>
</g>
<!-- AuthInterceptor&#45;&gt;AppModule -->
<g id="edge11" class="edge">
<title>AuthInterceptor&#45;&gt;AppModule</title>
<path fill="none" stroke="#000000" d="M97,-122.0109C97,-144.4852 97,-180 97,-180 97,-180 772.3022,-180 772.3022,-180"/>
<polygon fill="#000000" stroke="#000000" points="772.3022,-183.5001 782.3022,-180 772.3021,-176.5001 772.3022,-183.5001"/>
</g>
</g>
</svg>
