<?xml version="1.0" encoding="UTF-8" standalone="no"?>
<!DOCTYPE svg PUBLIC "-//W3C//DTD SVG 1.1//EN"
 "http://www.w3.org/Graphics/SVG/1.1/DTD/svg11.dtd">
<!-- Generated by graphviz version 2.40.1 (20161225.0304)
 -->
<!-- Title: dependencies Pages: 1 -->
<svg width="1588pt" height="211pt"
 viewBox="0.00 0.00 1588.00 211.00" xmlns="http://www.w3.org/2000/svg" xmlns:xlink="http://www.w3.org/1999/xlink">
<g id="graph0" class="graph" transform="scale(1 1) rotate(0) translate(4 207)">
<title>dependencies</title>
<polygon fill="#ffffff" stroke="transparent" points="-4,4 -4,-207 1584,-207 1584,4 -4,4"/>
<text text-anchor="start" x="769.0091" y="-42.4" font-family="sans-serif" font-weight="bold" font-size="14.00" fill="#000000">Legend</text>
<polygon fill="#ffffb3" stroke="transparent" points="556,-10 556,-30 576,-30 576,-10 556,-10"/>
<text text-anchor="start" x="579.629" y="-15.4" font-family="sans-serif" font-size="14.00" fill="#000000"> &#160;Declarations</text>
<polygon fill="#8dd3c7" stroke="transparent" points="669,-10 669,-30 689,-30 689,-10 669,-10"/>
<text text-anchor="start" x="692.7251" y="-15.4" font-family="sans-serif" font-size="14.00" fill="#000000"> &#160;Module</text>
<polygon fill="#80b1d3" stroke="transparent" points="755,-10 755,-30 775,-30 775,-10 755,-10"/>
<text text-anchor="start" x="778.7812" y="-15.4" font-family="sans-serif" font-size="14.00" fill="#000000"> &#160;Bootstrap</text>
<polygon fill="#fdb462" stroke="transparent" points="852,-10 852,-30 872,-30 872,-10 852,-10"/>
<text text-anchor="start" x="875.6732" y="-15.4" font-family="sans-serif" font-size="14.00" fill="#000000"> &#160;Providers</text>
<polygon fill="#fb8072" stroke="transparent" points="948,-10 948,-30 968,-30 968,-10 948,-10"/>
<text text-anchor="start" x="971.7258" y="-15.4" font-family="sans-serif" font-size="14.00" fill="#000000"> &#160;Exports</text>
<g id="clust1" class="cluster">
<title>cluster_AppRoutingModule</title>
<polygon fill="none" stroke="#000000" stroke-dasharray="1,5" points="8,-70 8,-195 1572,-195 1572,-70 8,-70"/>
</g>
<g id="clust4" class="cluster">
<title>cluster_AppRoutingModule_exports</title>
<polygon fill="none" stroke="#000000" points="16,-135 16,-187 1564,-187 1564,-135 16,-135"/>
</g>
<!-- AddDishModule  -->
<g id="node1" class="node">
<title>AddDishModule </title>
<polygon fill="#fb8072" stroke="#000000" points="1555.5989,-179 1442.4011,-179 1442.4011,-143 1555.5989,-143 1555.5989,-179"/>
<text text-anchor="middle" x="1499" y="-156.8" font-family="Times,serif" font-size="14.00" fill="#000000">AddDishModule </text>
</g>
<!-- AdminCustomerModule  -->
<g id="node2" class="node">
<title>AdminCustomerModule </title>
<polygon fill="#fb8072" stroke="#000000" points="1424.3757,-179 1267.6243,-179 1267.6243,-143 1424.3757,-143 1424.3757,-179"/>
<text text-anchor="middle" x="1346" y="-156.8" font-family="Times,serif" font-size="14.00" fill="#000000">AdminCustomerModule </text>
</g>
<!-- AdminPartnersModule  -->
<g id="node3" class="node">
<title>AdminPartnersModule </title>
<polygon fill="#fb8072" stroke="#000000" points="1249.8059,-179 1102.1941,-179 1102.1941,-143 1249.8059,-143 1249.8059,-179"/>
<text text-anchor="middle" x="1176" y="-156.8" font-family="Times,serif" font-size="14.00" fill="#000000">AdminPartnersModule </text>
</g>
<!-- CreateOrderModule  -->
<g id="node4" class="node">
<title>CreateOrderModule </title>
<polygon fill="#fb8072" stroke="#000000" points="1084.224,-179 951.776,-179 951.776,-143 1084.224,-143 1084.224,-179"/>
<text text-anchor="middle" x="1018" y="-156.8" font-family="Times,serif" font-size="14.00" fill="#000000">CreateOrderModule </text>
</g>
<!-- DishSearchModule  -->
<g id="node5" class="node">
<title>DishSearchModule </title>
<polygon fill="#fb8072" stroke="#000000" points="933.5793,-179 806.4207,-179 806.4207,-143 933.5793,-143 933.5793,-179"/>
<text text-anchor="middle" x="870" y="-156.8" font-family="Times,serif" font-size="14.00" fill="#000000">DishSearchModule </text>
</g>
<!-- EditDishModule  -->
<g id="node6" class="node">
<title>EditDishModule </title>
<polygon fill="#fb8072" stroke="#000000" points="788.3255,-179 675.6745,-179 675.6745,-143 788.3255,-143 788.3255,-179"/>
<text text-anchor="middle" x="732" y="-156.8" font-family="Times,serif" font-size="14.00" fill="#000000">EditDishModule </text>
</g>
<!-- OrderDetailsModule  -->
<g id="node7" class="node">
<title>OrderDetailsModule </title>
<polygon fill="#fb8072" stroke="#000000" points="657.8448,-179 522.1552,-179 522.1552,-143 657.8448,-143 657.8448,-179"/>
<text text-anchor="middle" x="590" y="-156.8" font-family="Times,serif" font-size="14.00" fill="#000000">OrderDetailsModule </text>
</g>
<!-- OrderHistoryModule  -->
<g id="node8" class="node">
<title>OrderHistoryModule </title>
<polygon fill="#fb8072" stroke="#000000" points="503.6856,-179 366.3144,-179 366.3144,-143 503.6856,-143 503.6856,-179"/>
<text text-anchor="middle" x="435" y="-156.8" font-family="Times,serif" font-size="14.00" fill="#000000">OrderHistoryModule </text>
</g>
<!-- PartnerDashboardModule  -->
<g id="node9" class="node">
<title>PartnerDashboardModule </title>
<polygon fill="#fb8072" stroke="#000000" points="348.1144,-179 183.8856,-179 183.8856,-143 348.1144,-143 348.1144,-179"/>
<text text-anchor="middle" x="266" y="-156.8" font-family="Times,serif" font-size="14.00" fill="#000000">PartnerDashboardModule </text>
</g>
<!-- PartnerDishesModule  -->
<g id="node10" class="node">
<title>PartnerDishesModule </title>
<polygon fill="#fb8072" stroke="#000000" points="165.575,-179 24.425,-179 24.425,-143 165.575,-143 165.575,-179"/>
<text text-anchor="middle" x="95" y="-156.8" font-family="Times,serif" font-size="14.00" fill="#000000">PartnerDishesModule </text>
</g>
<!-- AppRoutingModule -->
<g id="node11" class="node">
<title>AppRoutingModule</title>
<polygon fill="#8dd3c7" stroke="#000000" points="865.2744,-114 862.2744,-118 841.2744,-118 838.2744,-114 736.7256,-114 736.7256,-78 865.2744,-78 865.2744,-114"/>
<text text-anchor="middle" x="801" y="-91.8" font-family="Times,serif" font-size="14.00" fill="#000000">AppRoutingModule</text>
</g>
<!-- AppRoutingModule&#45;&gt;AddDishModule  -->
<g id="edge1" class="edge">
<title>AppRoutingModule&#45;&gt;AddDishModule </title>
<path fill="none" stroke="#000000" stroke-dasharray="5,2" d="M865.415,-86C1038.2109,-86 1499,-86 1499,-86 1499,-86 1499,-132.8446 1499,-132.8446"/>
<polygon fill="#000000" stroke="#000000" points="1495.5001,-132.8446 1499,-142.8446 1502.5001,-132.8446 1495.5001,-132.8446"/>
</g>
<!-- AppRoutingModule&#45;&gt;AdminCustomerModule  -->
<g id="edge2" class="edge">
<title>AppRoutingModule&#45;&gt;AdminCustomerModule </title>
<path fill="none" stroke="#000000" stroke-dasharray="5,2" d="M865.3897,-93C1009.6057,-93 1346,-93 1346,-93 1346,-93 1346,-132.7772 1346,-132.7772"/>
<polygon fill="#000000" stroke="#000000" points="1342.5001,-132.7772 1346,-142.7772 1349.5001,-132.7773 1342.5001,-132.7772"/>
</g>
<!-- AppRoutingModule&#45;&gt;AdminPartnersModule  -->
<g id="edge3" class="edge">
<title>AppRoutingModule&#45;&gt;AdminPartnersModule </title>
<path fill="none" stroke="#000000" stroke-dasharray="5,2" d="M865.4648,-100C972.6828,-100 1176,-100 1176,-100 1176,-100 1176,-132.698 1176,-132.698"/>
<polygon fill="#000000" stroke="#000000" points="1172.5001,-132.698 1176,-142.698 1179.5001,-132.698 1172.5001,-132.698"/>
</g>
<!-- AppRoutingModule&#45;&gt;CreateOrderModule  -->
<g id="edge4" class="edge">
<title>AppRoutingModule&#45;&gt;CreateOrderModule </title>
<path fill="none" stroke="#000000" stroke-dasharray="5,2" d="M865.5196,-107C929.4853,-107 1018,-107 1018,-107 1018,-107 1018,-132.7181 1018,-132.7181"/>
<polygon fill="#000000" stroke="#000000" points="1014.5001,-132.718 1018,-142.7181 1021.5001,-132.7181 1014.5001,-132.718"/>
</g>
<!-- AppRoutingModule&#45;&gt;DishSearchModule  -->
<g id="edge5" class="edge">
<title>AppRoutingModule&#45;&gt;DishSearchModule </title>
<path fill="none" stroke="#000000" stroke-dasharray="5,2" d="M835.7989,-114.1061C835.7989,-114.1061 835.7989,-132.991 835.7989,-132.991"/>
<polygon fill="#000000" stroke="#000000" points="832.299,-132.9909 835.7989,-142.991 839.299,-132.991 832.299,-132.9909"/>
</g>
<!-- AppRoutingModule&#45;&gt;EditDishModule  -->
<g id="edge6" class="edge">
<title>AppRoutingModule&#45;&gt;EditDishModule </title>
<path fill="none" stroke="#000000" stroke-dasharray="5,2" d="M762.5128,-114.1061C762.5128,-114.1061 762.5128,-132.991 762.5128,-132.991"/>
<polygon fill="#000000" stroke="#000000" points="759.0129,-132.9909 762.5128,-142.991 766.0129,-132.991 759.0129,-132.9909"/>
</g>
<!-- AppRoutingModule&#45;&gt;OrderDetailsModule  -->
<g id="edge7" class="edge">
<title>AppRoutingModule&#45;&gt;OrderDetailsModule </title>
<path fill="none" stroke="#000000" stroke-dasharray="5,2" d="M736.5465,-107C674.4953,-107 590,-107 590,-107 590,-107 590,-132.7181 590,-132.7181"/>
<polygon fill="#000000" stroke="#000000" points="586.5001,-132.718 590,-142.7181 593.5001,-132.7181 586.5001,-132.718"/>
</g>
<!-- AppRoutingModule&#45;&gt;OrderHistoryModule  -->
<g id="edge8" class="edge">
<title>AppRoutingModule&#45;&gt;OrderHistoryModule </title>
<path fill="none" stroke="#000000" stroke-dasharray="5,2" d="M736.409,-100C631.3377,-100 435,-100 435,-100 435,-100 435,-132.698 435,-132.698"/>
<polygon fill="#000000" stroke="#000000" points="431.5001,-132.698 435,-142.698 438.5001,-132.698 431.5001,-132.698"/>
</g>
<!-- AppRoutingModule&#45;&gt;PartnerDashboardModule  -->
<g id="edge9" class="edge">
<title>AppRoutingModule&#45;&gt;PartnerDashboardModule </title>
<path fill="none" stroke="#000000" stroke-dasharray="5,2" d="M736.4665,-93C594.1728,-93 266,-93 266,-93 266,-93 266,-132.7772 266,-132.7772"/>
<polygon fill="#000000" stroke="#000000" points="262.5001,-132.7772 266,-142.7772 269.5001,-132.7773 262.5001,-132.7772"/>
</g>
<!-- AppRoutingModule&#45;&gt;PartnerDishesModule  -->
<g id="edge10" class="edge">
<title>AppRoutingModule&#45;&gt;PartnerDishesModule </title>
<path fill="none" stroke="#000000" stroke-dasharray="5,2" d="M736.4756,-86C562.1913,-86 95,-86 95,-86 95,-86 95,-132.8446 95,-132.8446"/>
<polygon fill="#000000" stroke="#000000" points="91.5001,-132.8446 95,-142.8446 98.5001,-132.8446 91.5001,-132.8446"/>
</g>
</g>
</svg>
