<?xml version="1.0" encoding="UTF-8" standalone="no"?>
<!DOCTYPE svg PUBLIC "-//W3C//DTD SVG 1.1//EN"
 "http://www.w3.org/Graphics/SVG/1.1/DTD/svg11.dtd">
<!-- Generated by graphviz version 2.40.1 (20161225.0304)
 -->
<!-- Title: dependencies Pages: 1 -->
<svg width="504pt" height="211pt"
 viewBox="0.00 0.00 504.00 211.00" xmlns="http://www.w3.org/2000/svg" xmlns:xlink="http://www.w3.org/1999/xlink">
<g id="graph0" class="graph" transform="scale(1 1) rotate(0) translate(4 207)">
<title>dependencies</title>
<polygon fill="#ffffff" stroke="transparent" points="-4,4 -4,-207 500,-207 500,4 -4,4"/>
<text text-anchor="start" x="227.0091" y="-42.4" font-family="sans-serif" font-weight="bold" font-size="14.00" fill="#000000">Legend</text>
<polygon fill="#ffffb3" stroke="transparent" points="14,-10 14,-30 34,-30 34,-10 14,-10"/>
<text text-anchor="start" x="37.629" y="-15.4" font-family="sans-serif" font-size="14.00" fill="#000000"> &#160;Declarations</text>
<polygon fill="#8dd3c7" stroke="transparent" points="127,-10 127,-30 147,-30 147,-10 127,-10"/>
<text text-anchor="start" x="150.7251" y="-15.4" font-family="sans-serif" font-size="14.00" fill="#000000"> &#160;Module</text>
<polygon fill="#80b1d3" stroke="transparent" points="213,-10 213,-30 233,-30 233,-10 213,-10"/>
<text text-anchor="start" x="236.7812" y="-15.4" font-family="sans-serif" font-size="14.00" fill="#000000"> &#160;Bootstrap</text>
<polygon fill="#fdb462" stroke="transparent" points="310,-10 310,-30 330,-30 330,-10 310,-10"/>
<text text-anchor="start" x="333.6732" y="-15.4" font-family="sans-serif" font-size="14.00" fill="#000000"> &#160;Providers</text>
<polygon fill="#fb8072" stroke="transparent" points="406,-10 406,-30 426,-30 426,-10 406,-10"/>
<text text-anchor="start" x="429.7258" y="-15.4" font-family="sans-serif" font-size="14.00" fill="#000000"> &#160;Exports</text>
<g id="clust1" class="cluster">
<title>cluster_MessageOfflineModule</title>
<polygon fill="none" stroke="#000000" stroke-dasharray="1,5" points="56,-70 56,-195 440,-195 440,-70 56,-70"/>
</g>
<g id="clust2" class="cluster">
<title>cluster_MessageOfflineModule_declarations</title>
<polygon fill="none" stroke="#000000" points="246,-78 246,-130 432,-130 432,-78 246,-78"/>
</g>
<g id="clust4" class="cluster">
<title>cluster_MessageOfflineModule_imports</title>
<polygon fill="none" stroke="#000000" points="64,-78 64,-130 238,-130 238,-78 64,-78"/>
</g>
<!-- MessageOfflineComponent -->
<g id="node1" class="node">
<title>MessageOfflineComponent</title>
<polygon fill="#ffffb3" stroke="#000000" points="424.2338,-122 253.7662,-122 253.7662,-86 424.2338,-86 424.2338,-122"/>
<text text-anchor="middle" x="339" y="-99.8" font-family="Times,serif" font-size="14.00" fill="#000000">MessageOfflineComponent</text>
</g>
<!-- MessageOfflineModule -->
<g id="node2" class="node">
<title>MessageOfflineModule</title>
<polygon fill="#8dd3c7" stroke="#000000" points="319.451,-187 316.451,-191 295.451,-191 292.451,-187 170.549,-187 170.549,-151 319.451,-151 319.451,-187"/>
<text text-anchor="middle" x="245" y="-164.8" font-family="Times,serif" font-size="14.00" fill="#000000">MessageOfflineModule</text>
</g>
<!-- MessageOfflineComponent&#45;&gt;MessageOfflineModule -->
<g id="edge1" class="edge">
<title>MessageOfflineComponent&#45;&gt;MessageOfflineModule</title>
<path fill="none" stroke="#000000" d="M286.5544,-122.1061C286.5544,-122.1061 286.5544,-140.991 286.5544,-140.991"/>
<polygon fill="#000000" stroke="#000000" points="283.0544,-140.9909 286.5544,-150.991 290.0544,-140.991 283.0544,-140.9909"/>
</g>
<!-- ResponseHandlerModule -->
<g id="node3" class="node">
<title>ResponseHandlerModule</title>
<polygon fill="#8dd3c7" stroke="#000000" points="230.2921,-122 227.2921,-126 206.2921,-126 203.2921,-122 71.7079,-122 71.7079,-86 230.2921,-86 230.2921,-122"/>
<text text-anchor="middle" x="151" y="-99.8" font-family="Times,serif" font-size="14.00" fill="#000000">ResponseHandlerModule</text>
</g>
<!-- ResponseHandlerModule&#45;&gt;MessageOfflineModule -->
<g id="edge2" class="edge">
<title>ResponseHandlerModule&#45;&gt;MessageOfflineModule</title>
<path fill="none" stroke="#000000" d="M200.3352,-122.1061C200.3352,-122.1061 200.3352,-140.991 200.3352,-140.991"/>
<polygon fill="#000000" stroke="#000000" points="196.8353,-140.9909 200.3352,-150.991 203.8353,-140.991 196.8353,-140.9909"/>
</g>
</g>
</svg>
